<svg xmlns="http://www.w3.org/2000/svg" width="1935" height="813" viewBox="0 0 1935 813">
    <defs>
      <linearGradient id="bg" x1="0" y1="0" x2="1" y2="1"><stop offset="0" stop-color="#05080d"/><stop offset="0.56" stop-color="#0a1422"/><stop offset="1" stop-color="#07101b"/></linearGradient>
      <radialGradient id="blueGlow"><stop offset="0" stop-color="#2d91ed" stop-opacity=".28"/><stop offset="1" stop-color="#2d91ed" stop-opacity="0"/></radialGradient>
      <radialGradient id="goldGlow"><stop offset="0" stop-color="#ffd84d" stop-opacity=".30"/><stop offset="1" stop-color="#ffd84d" stop-opacity="0"/></radialGradient>
      <linearGradient id="steel" x1="0" y1="0" x2="1" y2="1"><stop offset="0" stop-color="#d6dde7" stop-opacity=".7"/><stop offset="1" stop-color="#506075" stop-opacity=".25"/></linearGradient>
      <filter id="blur20"><feGaussianBlur stdDeviation="20"/></filter>
      <filter id="glow"><feGaussianBlur stdDeviation="4" result="b"/><feMerge><feMergeNode in="b"/><feMergeNode in="SourceGraphic"/></feMerge></filter>
      <pattern id="grid" width="52" height="52" patternUnits="userSpaceOnUse"><path d="M52 0H0V52" fill="none" stroke="#8ba1ba" stroke-opacity=".08" stroke-width="1"/></pattern>
      
    </defs>
    <rect width="100%" height="100%" fill="url(#bg)"/>
    <rect width="100%" height="100%" fill="url(#grid)"/>
    <ellipse cx="1520" cy="220" rx="560" ry="360" fill="url(#blueGlow)"/>
    <ellipse cx="1480" cy="660" rx="460" ry="240" fill="url(#goldGlow)"/>
    
<g transform="translate(1130 210)">
  <rect x="0" y="170" width="510" height="270" rx="16" fill="#0d1724" stroke="#73879e" stroke-opacity=".35" stroke-width="2"/>
  <rect x="28" y="198" width="128" height="215" rx="6" fill="#111f30" stroke="#879cb3" stroke-opacity=".35"/>
  <rect x="171" y="198" width="128" height="215" rx="6" fill="#111f30" stroke="#879cb3" stroke-opacity=".35"/>
  <rect x="314" y="198" width="168" height="215" rx="6" fill="#111f30" stroke="#879cb3" stroke-opacity=".35"/>
  <g fill="#2d91ed"><circle cx="65" cy="235" r="5"/><circle cx="208" cy="235" r="5"/><circle cx="351" cy="235" r="5"/></g>
  <g stroke="#ffd84d" stroke-opacity=".55" stroke-width="2"><line x1="55" y1="275" x2="129" y2="275"/><line x1="198" y1="275" x2="272" y2="275"/><line x1="342" y1="275" x2="454" y2="275"/></g>
  <g stroke="#5c6f85" stroke-opacity=".42"><line x1="55" y1="305" x2="129" y2="305"/><line x1="55" y1="327" x2="129" y2="327"/><line x1="198" y1="305" x2="272" y2="305"/><line x1="198" y1="327" x2="272" y2="327"/><line x1="342" y1="305" x2="454" y2="305"/><line x1="342" y1="327" x2="454" y2="327"/></g>
</g>
<path d="M0 620 H880 C1015 620 1020 470 1138 470" fill="none" stroke="#ffd84d" stroke-width="3" stroke-opacity=".7"/>
<path d="M0 645 H900 C1040 645 1040 500 1138 500" fill="none" stroke="#2d91ed" stroke-width="2" stroke-opacity=".45"/>
<g opacity=".18" fill="#dce6f2"><rect x="690" y="520" width="80" height="130"/><rect x="785" y="490" width="104" height="160"/><rect x="902" y="535" width="72" height="115"/><rect x="992" y="460" width="110" height="190"/></g>
<g opacity=".65"><circle cx="1610" cy="368" r="6" fill="#ffd84d" filter="url(#glow)"/><circle cx="1467" cy="368" r="6" fill="#2d91ed" filter="url(#glow)"/></g>

    <path d="M0 735 C420 690 780 756 1120 718 C1430 684 1660 720 1935 686 L1935 813 L0 813Z" fill="#04070b"/>
    <path d="M0 729 C420 684 780 750 1120 712 C1430 678 1660 714 1935 680" fill="none" stroke="#2d91ed" stroke-opacity=".16"/>
    </svg>